<svg width="23" height="24" viewBox="0 0 23 24" fill="none" xmlns="http://www.w3.org/2000/svg">
<path d="M22.8901 11.94C22.8901 10.98 22.8101 10.28 22.6401 9.55H11.6801V13.88H18.1201C17.9901 14.96 17.2901 16.58 15.7301 17.67L15.7101 17.82L19.1801 20.51L19.4201 20.53C21.6201 18.49 22.8901 15.49 22.8901 11.94Z" fill="#364652"/>
<path d="M11.68 23.36C14.83 23.36 17.48 22.32 19.41 20.53L15.72 17.68C14.73 18.37 13.41 18.85 11.67 18.85C8.58 18.85 5.96 16.81 5.03 14H4.9L1.3 16.79L1.25 16.92C3.17 20.74 7.11 23.36 11.68 23.36Z" fill="#364652"/>
<path d="M5.03 13.99C4.78 13.26 4.64 12.48 4.64 11.68C4.64 10.88 4.78 10.1 5.02 9.37V9.21L1.37 6.38L1.25 6.44C0.45 8.02 0 9.8 0 11.68C0 13.56 0.45 15.34 1.25 16.92L5.03 13.99Z" fill="#364652"/>
<path d="M11.68 4.52C13.87 4.52 15.35 5.47 16.2 6.26L19.5 3.04C17.47 1.15 14.83 0 11.68 0C7.11 0 3.17 2.62 1.25 6.44L5.03 9.37C5.97 6.55 8.59 4.52 11.68 4.52Z" fill="#364652"/>
</svg>
